<svg xmlns="http://www.w3.org/2000/svg" height="24" viewBox="0 -960 960 960" width="24"><path d="M477.142-221.348q25.495 0 43.415-17.718 17.921-17.718 17.921-43.212 0-25.495-17.78-43.239-17.78-17.744-43.275-17.744-25.494 0-43.415 17.603-17.921 17.604-17.921 43.098 0 25.495 17.78 43.353 17.78 17.859 43.275 17.859Zm-48.816-165.848h99.435q0-35.913 6.739-57.38 6.739-21.467 45.587-58.794 25.522-23.282 41.163-49.201 15.641-25.919 15.641-62.316 0-61.765-45.065-93.885-45.065-32.119-107.27-32.119-65.839 0-106.317 34.598-40.478 34.597-54.956 84.837l88.391 34.478q2.717-17.478 18.859-40.5 16.141-23.022 52.75-23.022 26.608 0 40.913 15.103Q538.5-620.293 538.5-603.37q0 18.805-12.402 35.946t-28.728 30.707q-48.327 42.804-58.685 63.641-10.359 20.837-10.359 85.88ZM480-44.652q-90.357 0-169.912-34.16-79.554-34.159-138.335-92.941-58.782-58.781-92.941-138.335Q44.652-389.643 44.652-480q0-90.614 34.219-170.274 34.218-79.66 93.139-138.601 58.921-58.942 138.335-92.708Q389.759-915.348 480-915.348q90.604 0 170.266 33.761 79.663 33.762 138.611 92.71 58.948 58.948 92.71 138.637 33.761 79.689 33.761 170.323 0 90.634-33.765 169.81-33.766 79.176-92.708 138.097-58.941 58.921-138.601 93.14Q570.614-44.653 480-44.653Zm-.055-113.174q135.133 0 228.681-93.493 93.548-93.494 93.548-228.626 0-135.133-93.493-228.681-93.494-93.548-228.626-93.548-135.133 0-228.681 93.493-93.548 93.494-93.548 228.626 0 135.133 93.493 228.681 93.494 93.548 228.626 93.548ZM480-480Z"/></svg>