<svg width="1060" height="222" viewBox="0 0 1060 222" fill="none" xmlns="http://www.w3.org/2000/svg">
<g clip-path="url(#clip0_2386_24575)">
<path d="M46.5063 173.276C38.1167 187.809 42.7409 205.645 42.939 206.438C43.2693 207.825 44.1942 208.948 45.4493 209.675C46.2421 210.137 47.1669 210.401 48.0917 210.401C48.5542 210.401 49.0166 210.401 49.479 210.203C50.2057 210.005 68.0419 205.05 76.4315 190.583C84.8211 176.05 80.1969 158.214 79.9987 157.421C79.6684 156.034 78.7436 154.911 77.4885 154.184C76.2994 153.457 74.78 153.259 73.4588 153.656C72.7321 153.854 54.8959 158.808 46.5063 173.276ZM62.5589 127.232C62.0304 126.703 48.8184 113.755 32.1052 113.755C15.392 113.755 2.11392 126.637 1.58544 127.232C0.594541 128.223 0 129.61 0 130.997C0 132.384 0.594541 133.772 1.58544 134.762C2.11392 135.291 15.3259 148.239 32.0391 148.239C48.7523 148.239 61.9643 135.291 62.4928 134.762C63.4837 133.772 64.0783 132.384 64.0783 130.997C64.0783 129.61 63.5498 128.223 62.4928 127.232M79.9327 104.573C80.1309 103.846 84.7551 85.9441 76.3654 71.4109C67.9758 56.8777 50.2057 51.9892 49.4129 51.791C48.0257 51.3947 46.5723 51.5928 45.3833 52.3195C44.1942 53.0462 43.2693 54.1692 42.873 55.5565C42.6748 56.2831 38.0506 74.1854 46.4402 88.7186C54.8299 103.252 72.6 108.14 73.3927 108.338C73.8552 108.471 74.3176 108.537 74.78 108.537C75.7048 108.537 76.6297 108.272 77.4224 107.81C78.6115 107.083 79.5363 105.96 79.9327 104.573ZM135.159 173.276C126.769 158.742 108.999 153.854 108.206 153.656C106.819 153.259 105.366 153.457 104.177 154.184C102.922 154.911 102.063 156.034 101.666 157.421C101.468 158.148 96.8441 176.05 105.234 190.583C113.623 205.116 131.393 210.005 132.186 210.203C132.649 210.335 133.111 210.401 133.573 210.401C134.498 210.401 135.423 210.137 136.216 209.675C137.405 208.948 138.33 207.825 138.726 206.438C138.924 205.711 143.549 187.809 135.159 173.276Z" fill="#FFCC00"/>
<path d="M11.6265 172.35C11.2301 173.738 11.4283 175.191 12.155 176.38C12.8816 177.569 14.0046 178.494 15.3919 178.89C15.7883 179.022 21.007 180.344 27.9433 180.344C34.153 180.344 41.6838 179.287 48.5541 175.323C63.0873 166.933 67.9757 149.163 68.1739 148.37C68.5042 146.983 68.3721 145.53 67.6454 144.341C66.9188 143.152 65.7957 142.227 64.4085 141.831C63.6818 141.632 45.7795 137.008 31.2463 145.398C16.7131 153.787 11.8247 171.558 11.6265 172.35ZM67.6454 117.586C68.3721 116.331 68.5703 114.878 68.1739 113.557C67.9757 112.83 63.0212 94.9939 48.5541 86.6043C34.0208 78.2147 16.1846 82.8389 15.3919 83.037C14.0046 83.4334 12.8816 84.2922 12.155 85.5473C11.4283 86.7364 11.2301 88.2558 11.6265 89.577C11.8247 90.3037 16.7792 108.14 31.2463 116.53C38.0505 120.493 45.6474 121.55 51.791 121.55C58.7273 121.55 63.9461 120.163 64.3424 120.097C65.7297 119.766 66.8527 118.842 67.5794 117.586M94.5319 102.657C95.0603 102.128 108.008 88.9164 108.008 72.2032C108.008 55.49 95.0603 42.278 94.5319 41.7495C93.541 40.7586 92.1537 40.1641 90.7664 40.1641C89.3792 40.1641 87.9919 40.7586 87.001 41.7495C86.4725 42.278 73.5248 55.49 73.5248 72.2032C73.5248 88.9164 86.4725 102.128 87.001 102.657C87.9919 103.648 89.3792 104.242 90.7664 104.242C92.1537 104.242 93.541 103.714 94.5319 102.657ZM94.5319 220.244C95.0603 219.715 108.008 206.503 108.008 189.724C108.008 172.945 95.0603 159.799 94.5319 159.27C93.541 158.279 92.1537 157.685 90.7664 157.685C89.3792 157.685 87.9919 158.279 87.001 159.27C86.4725 159.799 73.5248 173.011 73.5248 189.724C73.5248 206.437 86.4725 219.649 87.001 220.244C87.9919 221.235 89.3792 221.829 90.7664 221.829C92.1537 221.829 93.541 221.301 94.5319 220.244ZM169.972 172.35C169.774 171.624 164.82 153.787 150.353 145.398C135.819 137.008 117.983 141.632 117.19 141.831C115.803 142.161 114.68 143.086 113.954 144.341C113.227 145.596 113.029 147.049 113.425 148.37C113.623 149.097 118.578 166.933 133.045 175.323C139.849 179.287 147.446 180.344 153.59 180.344C160.526 180.344 165.745 179.022 166.141 178.89C167.528 178.494 168.651 177.635 169.378 176.38C170.105 175.125 170.303 173.738 169.906 172.35" fill="#FFED00"/>
<path d="M214.629 103.781V93.1452H238.08C238.807 89.644 239.203 86.4731 239.203 83.6986C239.203 80.924 238.807 77.8192 238.08 74.252H214.629V63.4181H245.479C246.007 61.1721 246.404 59.1242 246.536 57.2745C246.734 55.3588 246.8 53.5752 246.8 51.7915C246.8 50.0079 246.734 48.1582 246.536 46.2425C246.338 44.3268 246.007 42.2128 245.479 40.0328H186.487V127.364H245.479C246.007 125.118 246.404 123.07 246.536 121.089C246.734 119.173 246.8 117.257 246.8 115.54C246.8 113.822 246.734 111.906 246.536 110.057C246.338 108.141 246.007 106.093 245.479 103.913H214.629V103.781ZM287.295 93.8718C286.238 91.1633 285.71 87.7282 285.71 83.6325C285.71 75.8374 287.493 70.4205 290.928 67.2496C294.429 64.0787 298.855 62.4933 304.14 62.4933C305.594 62.4933 306.915 62.4933 308.236 62.5593C309.491 62.5593 310.812 62.7575 312.134 62.9557C313.455 63.1539 314.842 63.4842 316.361 63.8805C317.881 64.2769 319.532 64.8054 321.448 65.466C323.364 61.8987 324.685 58.2654 325.61 54.5661C326.469 50.8667 326.799 47.1013 326.601 43.3359C323.958 42.345 321.514 41.4862 319.334 40.8256C317.154 40.165 315.04 39.6365 312.992 39.3062C310.944 38.9759 308.897 38.7777 306.783 38.6456C304.669 38.5135 302.489 38.4474 300.111 38.4474C293.24 38.4474 287.163 39.5704 281.812 41.7504C276.461 43.9965 271.969 47.0352 268.336 50.9988C264.702 54.9624 261.928 59.6527 260.012 65.2017C258.096 70.7508 257.172 76.8283 257.172 83.5004C257.172 90.1725 258.096 96.5803 260.012 102.063C261.862 107.546 264.702 112.237 268.402 116.2C272.101 120.164 276.725 123.136 282.142 125.25C287.559 127.364 293.835 128.421 300.969 128.421C305.197 128.421 309.359 128.157 313.587 127.562C317.815 127.034 322.439 125.713 327.526 123.731C327.526 118.975 326.997 114.747 325.874 110.981C324.751 107.282 323.298 103.913 321.382 100.94C318.145 102.129 315.371 103.054 312.992 103.583C310.614 104.111 307.84 104.441 304.603 104.441C302.026 104.441 299.648 104.111 297.336 103.451C295.024 102.79 293.042 101.667 291.325 100.148C289.607 98.6281 288.22 96.4481 287.163 93.7397M394.18 83.8307C394.18 90.833 392.991 96.1839 390.613 99.9493C388.235 103.715 384.601 105.631 379.713 105.631C374.825 105.631 371.191 103.715 368.879 99.9493C366.567 96.1839 365.378 90.767 365.378 83.8307C365.378 76.8944 366.567 71.2793 368.879 67.5138C371.191 63.7484 374.825 61.8327 379.713 61.8327C384.601 61.8327 388.235 63.6824 390.613 67.5138C392.991 71.2793 394.18 76.6962 394.18 83.8307ZM419.878 102.063C421.727 96.5803 422.586 90.5027 422.586 83.8307C422.586 77.1586 421.661 70.8829 419.878 65.2678C418.028 59.6527 415.319 54.8964 411.752 50.8667C408.185 46.837 403.693 43.7983 398.342 41.6183C392.991 39.4383 386.781 38.3813 379.713 38.3813C372.645 38.3813 366.567 39.4383 361.282 41.6183C355.931 43.7983 351.505 46.837 347.872 50.8667C344.305 54.8303 341.53 59.6527 339.747 65.2678C337.897 70.8829 336.972 77.0265 336.972 83.8307C336.972 90.6349 337.897 96.5803 339.747 102.063C341.596 107.546 344.305 112.237 347.872 116.2C351.505 120.164 355.931 123.136 361.282 125.25C366.567 127.364 372.777 128.421 379.713 128.421C386.649 128.421 392.991 127.364 398.342 125.25C403.693 123.136 408.119 120.098 411.752 116.2C415.319 112.237 418.094 107.546 419.878 102.063ZM497.696 121.221C497.894 119.305 497.961 117.389 497.961 115.672C497.961 113.954 497.894 112.104 497.696 110.189C497.564 108.273 497.168 106.225 496.639 104.045H465.195L465.393 41.0238C463.081 40.4953 460.703 40.0989 458.258 39.8347C455.814 39.5704 453.568 39.5044 451.454 39.5044C449.208 39.5044 446.962 39.6365 444.518 39.8347C442.14 40.0329 439.696 40.4292 437.251 41.0238L437.119 127.496H496.705C497.234 125.316 497.63 123.202 497.762 121.287M565.21 83.9628C565.21 90.9652 564.021 96.316 561.642 100.081C559.264 103.847 555.631 105.763 550.743 105.763C545.854 105.763 542.287 103.847 539.909 100.081C537.597 96.316 536.407 90.8991 536.407 83.9628C536.407 77.0265 537.597 71.4114 539.909 67.646C542.221 63.8805 545.854 61.9648 550.743 61.9648C555.631 61.9648 559.264 63.8145 561.642 67.646C564.021 71.4114 565.21 76.8283 565.21 83.9628ZM590.907 102.195C592.757 96.7124 593.682 90.6349 593.682 83.9628C593.682 77.2907 592.757 71.015 590.907 65.3999C589.057 59.7848 586.349 55.0285 582.782 50.9988C579.148 46.9692 574.722 43.9304 569.371 41.7504C564.021 39.5704 557.811 38.5135 550.743 38.5135C543.674 38.5135 537.597 39.5704 532.312 41.7504C526.961 43.9304 522.535 46.9692 518.902 50.9988C515.268 54.9624 512.56 59.7848 510.776 65.3999C508.927 71.015 508.068 77.1586 508.068 83.9628C508.068 90.767 508.993 96.7124 510.776 102.195C512.626 107.678 515.334 112.369 518.902 116.332C522.535 120.296 526.961 123.269 532.312 125.382C537.663 127.496 543.806 128.553 550.743 128.553C557.679 128.553 564.087 127.496 569.371 125.382C574.656 123.269 579.148 120.23 582.782 116.332C586.349 112.369 589.123 107.678 590.907 102.195ZM669.981 126.373C675.728 124.92 680.22 123.599 683.457 122.41V80.1313C678.106 79.1404 673.548 78.6119 669.651 78.6119C667.669 78.6119 665.555 78.7441 663.441 78.9422C661.261 79.1404 658.817 79.5368 656.042 80.1313V104.574H653.07C646.86 104.574 642.17 102.856 638.933 99.3548C635.696 95.8536 634.11 90.4367 634.11 82.9719C634.11 80.3295 634.441 77.7532 635.167 75.2429C635.894 72.7326 637.017 70.5526 638.602 68.7029C640.188 66.8532 642.17 65.3339 644.746 64.2108C647.322 63.0878 650.427 62.5593 654.06 62.5593C656.373 62.5593 659.147 62.8896 662.384 63.6163C665.621 64.343 669.122 65.466 672.888 67.0514C673.879 64.6072 674.737 62.4272 675.464 60.5115C676.191 58.5957 676.785 56.746 677.314 55.0285C677.776 53.3109 678.238 51.5934 678.569 49.9419C678.899 48.2904 679.097 46.5067 679.229 44.591C673.68 42.345 668.594 40.8256 663.903 39.9668C659.213 39.042 654.985 38.6456 651.088 38.6456C643.689 38.6456 637.083 39.8347 631.468 42.1468C625.787 44.4589 621.097 47.6298 617.265 51.5934C613.434 55.623 610.527 60.3133 608.611 65.7302C606.695 71.1471 605.705 76.9604 605.705 83.038C605.705 89.1155 606.497 95.2591 608.083 100.808C609.668 106.357 612.245 111.18 615.812 115.275C619.379 119.371 623.937 122.608 629.552 124.986C635.167 127.364 641.971 128.553 649.899 128.553C657.826 128.553 664.234 127.827 670.047 126.373M701.095 127.562H729.039V40.0989C726.727 39.5704 724.348 39.1741 721.904 38.9098C719.46 38.7116 717.214 38.5795 715.1 38.5795C712.92 38.5795 710.608 38.7116 708.23 38.9098C705.852 39.108 703.473 39.5044 701.029 40.0989V127.629L701.095 127.562ZM811.614 110.519C813.331 106.886 814.19 102.988 814.19 98.7603C814.19 94.5324 813.662 91.2294 812.539 88.3228C811.416 85.4161 809.896 83.038 807.98 81.0562C806.065 79.0744 803.753 77.4229 801.044 76.1677C798.336 74.9126 795.363 73.7895 792.06 72.9308L781.292 70.0902C779.773 69.6278 778.386 69.0993 777.13 68.4387C775.941 67.7781 775.281 66.8532 775.281 65.5981C775.281 62.7575 779.442 60.9739 784.595 60.9739C788.096 60.9739 804.017 62.9557 806.99 64.2108C806.99 64.2108 807.98 59.1242 808.179 53.0467C808.377 46.0443 806.99 40.9577 806.99 40.9577C802.167 39.3062 761.21 32.1056 749.914 53.5091C748.13 57.0103 747.271 63.1539 747.271 67.4478C747.271 74.252 749.187 79.6689 753.085 83.6325C756.982 87.5961 761.804 90.4367 767.618 92.0882L778.848 95.2591C780.698 95.7876 782.349 96.4482 783.802 97.1748C785.256 97.9015 785.982 98.9584 785.982 100.412C785.982 101.535 785.652 102.394 784.925 103.054C784.199 103.715 783.274 104.243 782.217 104.64C781.094 105.036 779.839 105.3 778.386 105.366C776.932 105.498 775.545 105.564 774.224 105.564C770.392 105.564 752.16 104.97 748.659 103.318C746.743 112.699 747.337 120.758 748.592 126.638C756.982 128.553 769.269 128.553 774.554 128.553C780.962 128.553 786.577 127.761 791.531 126.241C796.42 124.722 800.582 122.608 803.951 119.966C807.32 117.323 809.83 114.152 811.548 110.519M902.645 56.9442C902.843 55.0285 902.909 53.1788 902.909 51.3952C902.909 49.6116 902.843 47.8279 902.645 45.9122C902.512 44.0625 902.116 42.0147 901.588 39.7686H824.694C824.165 41.9486 823.769 43.9965 823.637 45.9122C823.505 47.8279 823.372 49.6116 823.372 51.3952C823.372 53.1788 823.438 55.0285 823.637 56.9442C823.835 58.86 824.165 60.9739 824.694 63.1539H849.202V127.562H877.145V63.2199H901.654C902.182 61.04 902.578 58.926 902.711 57.0103M947.169 104.64V93.013H970.158C970.885 89.5779 971.215 86.4731 971.215 83.6986C971.215 80.924 970.885 77.8853 970.158 74.4502H947.169V62.8896H977.358C977.887 60.7097 978.283 58.7278 978.415 56.8782C978.614 55.0285 978.68 53.2449 978.68 51.5273C978.68 49.8097 978.614 47.9601 978.415 46.0443C978.283 44.1286 977.887 42.0807 977.358 39.9668H919.622V127.695H977.358C977.887 125.515 978.283 123.467 978.415 121.551C978.614 119.635 978.68 117.852 978.68 116.068C978.68 114.284 978.614 112.567 978.415 110.717C978.283 108.867 977.887 106.886 977.358 104.706H947.169V104.64ZM1021.09 65.7302C1021.09 62.8896 1025.25 61.106 1030.4 61.106C1033.91 61.106 1049.83 63.0878 1052.8 64.343C1052.8 64.343 1053.79 59.2563 1053.99 53.1788C1054.19 46.1764 1052.8 41.0898 1052.8 41.0898C1047.98 39.4383 1007.02 32.2378 995.723 53.6412C993.94 57.1424 993.081 63.286 993.081 67.5799C993.081 74.3841 994.997 79.801 998.894 83.7646C1002.73 87.7282 1007.61 90.5688 1013.43 92.2203L1024.66 95.3912C1026.51 95.9197 1028.16 96.5803 1029.61 97.3069C1031.07 98.0336 1031.79 99.0906 1031.79 100.544C1031.79 101.667 1031.46 102.526 1030.74 103.186C1030.01 103.847 1029.08 104.375 1028.03 104.772C1026.9 105.168 1025.65 105.432 1024.2 105.498C1022.74 105.631 1021.35 105.697 1020.03 105.697C1016.2 105.697 997.969 105.102 994.468 103.451C992.552 112.831 993.147 120.89 994.402 126.77C1002.79 128.685 1015.08 128.685 1020.36 128.685C1026.77 128.685 1032.39 127.893 1037.34 126.373C1042.23 124.854 1046.39 122.74 1049.76 120.098C1053.13 117.455 1055.64 114.284 1057.36 110.651C1059.07 107.018 1059.93 103.12 1059.93 98.8924C1059.93 94.6645 1059.41 91.3615 1058.28 88.4549C1057.16 85.5482 1055.64 83.1701 1053.72 81.1883C1051.81 79.2065 1049.5 77.555 1046.79 76.2998C1044.08 75.0447 1041.11 73.9217 1037.8 73.0629L1027.04 70.2223C1025.52 69.7599 1024.13 69.2314 1022.87 68.5708C1021.68 67.9102 1021.02 66.9854 1021.02 65.7302" fill="#166A5D"/>
<path d="M128.619 119.767C128.553 120.626 128.487 121.419 128.487 122.079C128.487 122.74 128.487 123.466 128.619 124.325C128.685 125.184 128.817 126.109 128.949 127.166H170.171V103.714C169.18 103.516 168.321 103.384 167.594 103.318C166.868 103.318 166.207 103.252 165.547 103.252C164.952 103.252 164.358 103.252 163.631 103.318C162.904 103.318 162.111 103.516 161.121 103.714V116.993H128.883C128.751 117.983 128.619 118.908 128.553 119.767M161.187 74.9783V89.3794H152.995V78.2813C151.344 77.951 149.824 77.7528 148.503 77.7528C147.182 77.7528 145.729 77.951 144.011 78.2813V89.3794H137.669V75.3086C135.886 74.9783 134.366 74.8462 133.111 74.8462C132.451 74.8462 131.79 74.8462 131.063 74.9783C130.337 75.0444 129.544 75.1765 128.685 75.3086V99.5527H170.039V74.9122C168.453 74.5819 166.934 74.3838 165.481 74.3838C164.159 74.3838 162.706 74.5819 161.121 74.9122M169.907 70.5523C170.633 66.5226 170.633 60.9736 170.633 58.5293C170.633 55.4245 170.237 52.7161 169.51 50.3379C168.784 48.0258 167.793 46.044 166.538 44.4585C165.348 42.9392 163.895 41.7501 162.244 40.9574C160.592 40.1646 158.742 39.7683 156.827 39.7683C154.911 39.7683 153.325 40.0325 152.004 40.4949C150.749 40.9574 149.626 41.684 148.767 42.4767C147.843 43.3355 147.116 44.3925 146.587 45.5816C145.993 46.9028 145.464 48.3561 145.068 49.9415L143.615 55.4245C143.35 56.2833 143.02 57.076 142.69 57.8027C142.095 58.8596 141.236 59.3881 140.113 59.3881C137.933 59.3881 136.48 56.9439 136.48 53.3767C136.48 51.9894 137.141 46.1761 137.801 43.0713C136.81 42.9392 135.357 42.741 133.706 42.741C131.46 42.741 129.61 42.9392 128.685 43.1373C127.76 47.2331 125.316 64.8711 134.564 69.7596C136.084 70.5523 138.99 70.9486 140.972 70.9486C144.143 70.9486 146.521 70.0899 148.239 68.3723C150.089 66.5887 151.41 64.3426 152.136 61.5681L153.722 55.8869C154.052 54.83 154.382 53.9712 154.779 53.1785C155.373 51.9894 156.364 51.3949 157.553 51.3949C158.478 51.3949 159.271 51.7252 159.865 52.3858C160.328 52.8482 160.658 53.5088 160.922 54.2354C161.187 54.896 161.319 55.6227 161.385 56.4815C161.385 57.2081 161.451 58.0009 161.451 58.6615C161.451 58.7275 161.319 66.7208 160.658 70.5523C164.358 71.1468 167.528 70.8826 169.774 70.5523M206.834 148.371H186.752C186.289 148.371 186.025 148.635 186.025 149.098V179.485C186.025 179.948 186.289 180.212 186.752 180.212H206.834C207.297 180.212 207.561 179.948 207.561 179.485V176.381C207.561 175.918 207.297 175.654 206.834 175.654H191.574C191.574 175.654 191.31 175.522 191.31 175.39V166.67C191.31 166.67 191.442 166.405 191.574 166.405H201.748C202.21 166.405 202.474 166.141 202.474 165.679V162.574C202.474 162.112 202.21 161.847 201.748 161.847H191.574C191.574 161.847 191.31 161.715 191.31 161.583V153.193C191.31 153.193 191.376 152.929 191.574 152.929H206.834C207.297 152.929 207.561 152.665 207.561 152.203V149.098C207.561 148.635 207.297 148.371 206.834 148.371ZM231.673 3.89766C231.673 2.97282 231.409 2.04798 230.748 1.32132C230.087 0.594658 229.162 0.132237 228.238 0.0661772C227.709 0.0661772 214.96 -0.924724 206.372 6.27582C197.784 13.4764 196.925 25.6314 196.925 26.1599C196.925 27.0847 197.189 28.0096 197.85 28.7362C198.312 29.1987 198.841 29.595 199.435 29.7932C199.7 29.9253 200.03 29.9914 200.36 29.9914C200.889 29.9914 213.638 30.9823 222.226 23.7817C230.814 16.5812 231.673 4.42614 231.673 3.89766ZM246.999 169.907V149.098C246.999 148.635 246.734 148.371 246.272 148.371H242.441C241.978 148.371 241.714 148.635 241.714 149.098V169.973C241.714 173.54 239.27 176.05 235.57 176.05C231.871 176.05 229.427 173.606 229.427 169.973V149.098C229.427 148.635 229.162 148.371 228.7 148.371H224.869C224.406 148.371 224.142 148.635 224.142 149.098V169.907C224.142 176.381 228.766 180.608 235.57 180.608C242.374 180.608 246.999 176.381 246.999 169.907ZM276.858 162.376H270.054C270.054 162.376 269.789 162.31 269.789 162.112V153.127C269.789 153.127 269.855 152.863 270.054 152.863H276.858C279.764 152.863 281.746 154.845 281.746 157.686C281.746 160.526 279.764 162.376 276.858 162.376ZM286.569 180.212C287.097 180.212 287.361 179.816 287.097 179.353L280.821 166.339C280.821 166.339 280.821 166.009 280.954 166.009C284.653 164.886 287.031 161.847 287.031 157.619C287.031 152.07 283.266 148.305 277.651 148.305H265.297C264.835 148.305 264.571 148.569 264.571 149.032V179.485C264.571 179.948 264.835 180.212 265.297 180.212H269.129C269.591 180.212 269.855 179.948 269.855 179.485V166.736C269.855 166.736 269.988 166.472 270.12 166.472H275.471C275.471 166.472 275.735 166.471 275.801 166.67L281.746 179.684C281.944 180.08 282.209 180.212 282.605 180.212H286.569ZM320.722 169.642C320.722 173.54 318.211 176.116 314.38 176.116C310.548 176.116 308.104 173.54 308.104 169.642V159.007C308.104 155.109 310.615 152.533 314.38 152.533C318.145 152.533 320.722 155.109 320.722 159.007V169.642ZM326.007 169.444V159.073C326.007 152.401 321.382 147.975 314.38 147.975C307.378 147.975 302.819 152.401 302.819 159.073V169.444C302.819 176.182 307.444 180.608 314.38 180.608C321.316 180.608 326.007 176.182 326.007 169.444ZM360.16 157.95C360.16 160.922 358.112 162.904 355.007 162.904H348.269C348.269 162.904 348.005 162.772 348.005 162.64V153.127C348.005 153.127 348.137 152.863 348.269 152.863H355.007C358.112 152.863 360.16 154.911 360.16 157.95ZM365.444 157.818C365.444 152.136 361.547 148.305 355.8 148.305H343.446C342.984 148.305 342.72 148.569 342.72 149.032V179.485C342.72 179.948 342.984 180.212 343.446 180.212H347.278C347.74 180.212 348.005 179.948 348.005 179.485V167.462C348.005 167.462 348.137 167.198 348.269 167.198H355.535C361.481 167.198 365.444 163.433 365.444 157.818ZM402.834 179.485V176.381C402.834 175.918 402.57 175.654 402.108 175.654H386.848C386.848 175.654 386.584 175.522 386.584 175.39V166.67C386.584 166.67 386.716 166.405 386.848 166.405H397.021C397.484 166.405 397.748 166.141 397.748 165.679V162.574C397.748 162.112 397.484 161.847 397.021 161.847H386.848C386.848 161.847 386.584 161.715 386.584 161.583V153.193C386.584 153.193 386.65 152.929 386.848 152.929H402.108C402.57 152.929 402.834 152.665 402.834 152.203V149.098C402.834 148.635 402.57 148.371 402.108 148.371H382.025C381.563 148.371 381.299 148.635 381.299 149.098V179.485C381.299 179.948 381.563 180.212 382.025 180.212H402.108C402.57 180.212 402.834 179.948 402.834 179.485ZM455.088 140.114C455.418 139.585 455.22 139.255 454.626 139.255H451.058C450.662 139.255 450.398 139.453 450.199 139.783L447.821 144.077C447.557 144.606 447.821 144.936 448.35 144.936H451.323C451.653 144.936 451.983 144.87 452.181 144.473L455.088 140.114ZM461.165 179.485V176.381C461.165 175.918 460.901 175.654 460.439 175.654H445.179C445.179 175.654 444.915 175.522 444.915 175.39V166.67C444.915 166.67 445.047 166.405 445.179 166.405H455.352C455.815 166.405 456.079 166.141 456.079 165.679V162.574C456.079 162.112 455.815 161.847 455.352 161.847H445.179C445.179 161.847 444.915 161.715 444.915 161.583V153.193C444.915 153.193 444.981 152.929 445.179 152.929H460.439C460.901 152.929 461.165 152.665 461.165 152.203V149.098C461.165 148.635 460.901 148.371 460.439 148.371H440.357C439.894 148.371 439.63 148.635 439.63 149.098V179.485C439.63 179.948 439.894 180.212 440.357 180.212H460.439C460.901 180.212 461.165 179.948 461.165 179.485ZM499.745 170.237V170.039C499.745 170.039 499.48 169.841 499.018 169.841L495.186 169.642C494.724 169.642 494.46 169.841 494.46 170.171C494.46 173.738 492.082 176.116 488.382 176.116C484.683 176.116 482.239 173.738 482.239 170.171V158.544C482.239 154.977 484.683 152.599 488.382 152.599C492.082 152.599 494.46 154.977 494.46 158.544V158.809C494.46 158.809 494.724 159.073 495.186 159.007L499.084 158.809C499.546 158.809 499.745 158.61 499.745 158.28C499.745 152.136 495.186 148.041 488.382 148.041C481.578 148.041 476.954 152.269 476.954 158.676V169.907C476.954 176.314 481.512 180.608 488.382 180.608C495.252 180.608 499.745 176.513 499.745 170.303M533.633 169.708C533.633 173.606 531.123 176.182 527.292 176.182C523.46 176.182 521.016 173.606 521.016 169.708V159.073C521.016 155.175 523.526 152.599 527.292 152.599C531.057 152.599 533.633 155.175 533.633 159.073V169.708ZM538.918 169.51V159.139C538.918 152.467 534.294 148.041 527.292 148.041C520.289 148.041 515.731 152.467 515.731 159.139V169.51C515.731 176.248 520.355 180.674 527.292 180.674C534.228 180.674 538.918 176.248 538.918 169.51ZM577.233 179.485V176.381C577.233 175.918 576.969 175.654 576.506 175.654H561.511C561.511 175.654 561.246 175.522 561.246 175.39V149.098C561.246 148.635 560.982 148.371 560.52 148.371H556.688C556.226 148.371 555.962 148.635 555.962 149.098V179.485C555.962 179.948 556.226 180.212 556.688 180.212H576.506C576.969 180.212 577.233 179.948 577.233 179.485ZM609.933 169.642C609.933 173.54 607.422 176.116 603.591 176.116C599.759 176.116 597.315 173.54 597.315 169.642V159.007C597.315 155.109 599.826 152.533 603.591 152.533C607.356 152.533 609.933 155.109 609.933 159.007V169.642ZM615.217 169.444V159.073C615.217 152.401 610.593 147.975 603.591 147.975C596.589 147.975 592.03 152.401 592.03 159.073V169.444C592.03 176.182 596.655 180.608 603.591 180.608C610.527 180.608 615.217 176.182 615.217 169.444ZM654.193 169.444V163.829C654.193 163.367 653.929 163.102 653.466 163.102H643.293C642.831 163.102 642.566 163.367 642.566 163.829V166.802C642.566 167.264 642.831 167.528 643.293 167.528H648.644C648.644 167.528 648.908 167.595 648.908 167.793V170.567C648.908 173.936 646.662 175.918 643.029 175.918C639.395 175.918 636.687 173.54 636.687 169.841V158.478C636.687 154.845 639.131 152.467 642.831 152.467C646.53 152.467 648.908 154.845 648.908 158.082V158.412C648.908 158.412 649.172 158.809 649.635 158.809H653.4C653.863 158.809 654.127 158.544 654.127 158.082V157.884C654.127 152.136 649.635 147.843 642.765 147.843C635.894 147.843 631.336 152.136 631.336 158.61V169.642C631.336 176.116 635.894 180.41 642.765 180.41C649.635 180.41 654.127 176.447 654.127 169.378M676.125 179.353V148.966C676.125 148.503 675.861 148.239 675.398 148.239H671.567C671.104 148.239 670.84 148.503 670.84 148.966V179.353C670.84 179.816 671.104 180.08 671.567 180.08H675.398C675.861 180.08 676.125 179.816 676.125 179.353ZM715.497 179.353V176.248C715.497 175.786 715.232 175.522 714.77 175.522H699.51C699.51 175.522 699.246 175.39 699.246 175.257V166.538C699.246 166.538 699.378 166.273 699.51 166.273H709.683C710.146 166.273 710.41 166.009 710.41 165.547V162.442C710.41 161.979 710.146 161.715 709.683 161.715H699.51C699.51 161.715 699.246 161.583 699.246 161.451V153.061C699.246 153.061 699.312 152.797 699.51 152.797H714.77C715.232 152.797 715.497 152.533 715.497 152.07V148.966C715.497 148.503 715.232 148.239 714.77 148.239H694.688C694.225 148.239 693.961 148.503 693.961 148.966V179.353C693.961 179.816 694.225 180.08 694.688 180.08H714.77C715.232 180.08 715.497 179.816 715.497 179.353ZM773.564 179.353V176.248C773.564 175.786 773.299 175.522 772.837 175.522H757.841C757.841 175.522 757.577 175.39 757.577 175.257V148.966C757.577 148.503 757.313 148.239 756.85 148.239H753.019C752.556 148.239 752.292 148.503 752.292 148.966V179.353C752.292 179.816 752.556 180.08 753.019 180.08H772.837C773.299 180.08 773.564 179.816 773.564 179.353ZM810.954 179.353V176.248C810.954 175.786 810.689 175.522 810.227 175.522H794.967C794.967 175.522 794.703 175.39 794.703 175.257V166.538C794.703 166.538 794.835 166.273 794.967 166.273H805.14C805.603 166.273 805.867 166.009 805.867 165.547V162.442C805.867 161.979 805.603 161.715 805.14 161.715H794.967C794.967 161.715 794.703 161.583 794.703 161.451V153.061C794.703 153.061 794.769 152.797 794.967 152.797H810.227C810.689 152.797 810.954 152.533 810.954 152.07V148.966C810.954 148.503 810.689 148.239 810.227 148.239H790.145C789.682 148.239 789.418 148.503 789.418 148.966V179.353C789.418 179.816 789.682 180.08 790.145 180.08H810.227C810.689 180.08 810.954 179.816 810.954 179.353ZM831.696 156.43C831.696 153.854 833.612 152.401 836.981 152.401C841.275 152.401 843.587 154.779 843.587 157.487V158.016C843.587 158.016 843.851 158.544 844.314 158.544H848.079C848.542 158.544 848.806 158.28 848.806 157.818V157.223C848.806 151.608 844.182 147.843 837.245 147.843C830.838 147.843 826.544 151.08 826.544 156.496C826.544 162.31 831.432 164.225 836.453 166.075C841.341 167.991 843.719 169.048 843.719 171.69C843.719 174.002 842.002 175.918 838.104 175.918C833.942 175.918 831.366 173.738 831.366 171.03V170.303C831.366 169.841 831.102 169.642 830.639 169.642H826.94C826.478 169.642 826.213 169.907 826.213 170.369V171.36C826.213 176.909 830.706 180.476 837.708 180.476C844.71 180.476 849.004 176.909 849.004 171.558C849.004 165.745 843.785 163.829 839.161 162.045C833.942 160.13 831.762 159.205 831.762 156.43M899.21 179.485L908.789 149.032C908.921 148.503 908.722 148.239 908.194 148.239H904.164C903.768 148.239 903.438 148.437 903.372 148.9L896.7 172.351C896.7 172.351 896.435 172.549 896.369 172.351L889.631 148.833C889.499 148.371 889.235 148.239 888.838 148.239H884.677C884.148 148.239 883.95 148.569 884.082 149.032L893.463 179.485C893.595 179.882 893.859 180.08 894.255 180.08H898.417C898.813 180.08 899.078 179.882 899.21 179.485ZM945.848 179.353V176.248C945.848 175.786 945.584 175.522 945.122 175.522H929.862C929.862 175.522 929.597 175.39 929.597 175.257V166.538C929.597 166.538 929.729 166.273 929.862 166.273H940.035C940.497 166.273 940.762 166.009 940.762 165.547V162.442C940.762 161.979 940.497 161.715 940.035 161.715H929.862C929.862 161.715 929.597 161.583 929.597 161.451V153.061C929.597 153.061 929.663 152.797 929.862 152.797H945.122C945.584 152.797 945.848 152.533 945.848 152.07V148.966C945.848 148.503 945.584 148.239 945.122 148.239H925.039C924.577 148.239 924.313 148.503 924.313 148.966V179.353C924.313 179.816 924.577 180.08 925.039 180.08H945.122C945.584 180.08 945.848 179.816 945.848 179.353ZM974.717 162.244H967.912C967.912 162.244 967.648 162.178 967.648 161.979V152.995C967.648 152.995 967.714 152.731 967.912 152.731H974.717C977.623 152.731 979.605 154.713 979.605 157.553C979.605 160.394 977.623 162.244 974.717 162.244ZM984.427 180.08C984.956 180.08 985.22 179.684 984.956 179.221L978.68 166.207C978.68 166.207 978.68 165.877 978.812 165.877C982.578 164.754 984.89 161.715 984.89 157.487C984.89 151.938 981.124 148.173 975.509 148.173H963.156C962.694 148.173 962.429 148.437 962.429 148.9V179.353C962.429 179.816 962.694 180.08 963.156 180.08H966.987C967.45 180.08 967.714 179.816 967.714 179.353V166.604C967.714 166.604 967.846 166.339 967.978 166.339H973.329C973.329 166.339 973.594 166.339 973.66 166.538L979.605 179.551C979.803 179.948 980.067 180.08 980.464 180.08H984.493H984.427ZM1022.87 152.07V148.9C1022.87 148.437 1022.61 148.173 1022.15 148.173H1000.35C999.885 148.173 999.621 148.437 999.621 148.9V152.07C999.621 152.533 999.885 152.797 1000.35 152.797H1008.14C1008.14 152.797 1008.41 152.929 1008.41 153.061V179.287C1008.41 179.75 1008.67 180.014 1009.13 180.014H1012.97C1013.43 180.014 1013.69 179.75 1013.69 179.287V153.061C1013.69 153.061 1013.76 152.797 1013.96 152.797H1022.08C1022.54 152.797 1022.81 152.533 1022.81 152.07M1059.87 157.818V157.223C1059.87 151.608 1055.24 147.843 1048.31 147.843C1041.9 147.843 1037.61 151.08 1037.61 156.496C1037.61 162.31 1042.49 164.225 1047.51 166.075C1052.4 167.991 1054.78 169.048 1054.78 171.69C1054.78 174.002 1053.06 175.918 1049.17 175.918C1045 175.918 1042.43 173.738 1042.43 171.03V170.303C1042.43 169.841 1042.16 169.642 1041.7 169.642H1038C1037.54 169.642 1037.28 169.907 1037.28 170.369V171.36C1037.28 176.909 1041.77 180.476 1048.77 180.476C1055.77 180.476 1060.07 176.909 1060.07 171.558C1060.07 165.745 1054.85 163.829 1050.22 162.045C1045 160.13 1042.82 159.205 1042.82 156.43C1042.82 153.854 1044.74 152.401 1048.11 152.401C1052.4 152.401 1054.72 154.779 1054.72 157.487V158.016C1054.72 158.016 1054.98 158.544 1055.44 158.544H1059.14C1059.6 158.544 1059.87 158.28 1059.87 157.818Z" fill="white"/>
</g>
<defs>
<clipPath id="clip0_2386_24575">
<rect width="1060" height="221.83" fill="white"/>
</clipPath>
</defs>
</svg>
