<svg width="290" height="284" viewBox="0 0 290 284" fill="none" xmlns="http://www.w3.org/2000/svg">
<path d="M119.416 106.797C118.681 106.797 117.938 106.707 117.21 106.512C116.007 106.196 87.601 98.5054 74.2176 75.8301C60.8341 53.1474 68.2344 25.2371 68.5562 24.0579C69.1384 21.9248 70.5633 20.1072 72.5168 19.0031C74.4704 17.899 76.7916 17.5985 78.9749 18.1769C80.1777 18.4923 108.584 26.1834 121.968 48.8587C135.351 71.5339 127.951 99.4517 127.629 100.631C127.047 102.764 125.622 104.582 123.668 105.678C122.366 106.414 120.895 106.79 119.416 106.79" fill="#FFCC00"/>
<path d="M170.588 106.798C171.323 106.798 172.066 106.708 172.794 106.512C173.997 106.197 202.403 98.5059 215.787 75.8306C229.17 53.1479 221.77 25.2376 221.448 24.0583C220.866 21.9253 219.441 20.1076 217.488 19.0035C215.534 17.8995 213.213 17.599 211.03 18.1774C209.827 18.4928 181.42 26.1839 168.037 48.8592C154.653 71.5344 162.054 99.4522 162.376 100.631C162.958 102.765 164.383 104.582 166.336 105.679C167.639 106.415 169.109 106.79 170.588 106.79" fill="#FFCC00"/>
<path d="M51.1514 168.822C24.3844 168.822 3.37077 148.595 2.48977 147.739C0.888657 146.176 0 144.066 0 141.858C0 139.65 0.896318 137.539 2.48977 135.977C3.37077 135.113 24.3844 114.894 51.1514 114.894C77.9184 114.894 98.932 135.121 99.813 135.977C101.414 137.539 102.303 139.65 102.303 141.858C102.303 144.066 101.406 146.176 99.813 147.739C98.932 148.603 77.9184 168.822 51.1514 168.822Z" fill="#FFCC00"/>
<path d="M238.849 168.821C265.616 168.821 286.629 148.595 287.51 147.739C289.111 146.176 290 144.066 290 141.858C290 139.649 289.104 137.539 287.51 135.977C286.629 135.113 265.616 114.894 238.849 114.894C212.082 114.894 191.068 135.12 190.187 135.977C188.586 137.539 187.697 139.649 187.697 141.858C187.697 144.066 188.594 146.176 190.187 147.739C191.068 148.602 212.082 168.821 238.849 168.821Z" fill="#FFCC00"/>
<path d="M76.7579 265.813C75.2794 265.813 73.8085 265.437 72.5138 264.701C70.5603 263.597 69.1354 261.779 68.5532 259.654C68.2314 258.475 60.8387 230.564 74.2145 207.881C87.598 185.206 116.012 177.515 117.207 177.2C119.383 176.629 121.712 176.922 123.665 178.026C125.619 179.13 127.044 180.948 127.626 183.081C127.948 184.26 135.34 212.17 121.965 234.853C108.581 257.528 80.1747 265.219 78.9719 265.535C78.2441 265.722 77.501 265.82 76.7656 265.82" fill="#FFCC00"/>
<path d="M213.254 265.808C212.519 265.808 211.776 265.718 211.048 265.523C209.845 265.207 181.431 257.516 168.055 234.841C154.672 212.166 162.064 184.248 162.394 183.069C162.976 180.936 164.401 179.118 166.355 178.014C168.308 176.91 170.629 176.61 172.805 177.188C174.008 177.503 202.422 185.194 215.798 207.87C229.181 230.545 221.788 258.463 221.467 259.642C220.884 261.775 219.459 263.593 217.506 264.689C216.204 265.425 214.74 265.801 213.262 265.801" fill="#FFCC00"/>
<path d="M82.8037 127.122C72.9365 127.122 60.8477 125.462 49.954 119.304C26.7723 106.212 18.9123 78.4219 18.5905 77.2427C18.0007 75.1096 18.3071 72.8413 19.4409 70.926C20.567 69.0183 22.4286 67.6212 24.6043 67.0504C25.807 66.735 54.3437 59.502 77.5177 72.5934C100.699 85.6849 108.559 113.475 108.881 114.654C109.471 116.787 109.165 119.056 108.031 120.971C106.905 122.879 105.043 124.276 102.867 124.847C102.232 125.012 93.9196 127.122 82.8037 127.122Z" fill="#FFED00"/>
<path d="M207.207 127.122C217.074 127.122 229.163 125.462 240.057 119.304C263.238 106.212 271.098 78.4219 271.42 77.2427C272.01 75.1096 271.704 72.8413 270.57 70.926C269.444 69.0183 267.582 67.6212 265.406 67.0504C264.204 66.735 235.667 59.502 212.493 72.5934C189.311 85.6849 181.451 113.475 181.13 114.654C180.54 116.787 180.846 119.056 181.98 120.971C183.106 122.879 184.968 124.276 187.143 124.847C187.779 125.012 196.091 127.122 207.207 127.122Z" fill="#FFED00"/>
<path d="M44.6629 218.921C33.5394 218.921 25.235 216.81 24.5992 216.645C22.4235 216.074 20.5619 214.685 19.4358 212.77C18.3096 210.862 18.0032 208.586 18.5854 206.453C18.9072 205.281 26.7672 177.483 49.9489 164.392C73.1306 151.301 101.66 158.534 102.87 158.849C105.046 159.42 106.907 160.809 108.033 162.725C109.16 164.632 109.466 166.908 108.884 169.041C108.562 170.213 100.702 198.011 77.5203 211.102C66.6189 217.261 54.5377 218.921 44.6706 218.921" fill="#FFED00"/>
<path d="M144.998 283.7C142.746 283.7 140.578 282.821 138.985 281.259C138.104 280.395 117.435 259.838 117.435 233.655C117.435 207.472 138.104 186.915 138.985 186.051C140.578 184.489 142.746 183.618 144.998 183.618C147.251 183.618 149.419 184.496 151.012 186.051C151.893 186.915 172.562 207.472 172.562 233.655C172.562 259.838 151.885 280.395 151.012 281.259C149.419 282.821 147.258 283.7 144.998 283.7Z" fill="#FFED00"/>
<path d="M245.343 218.921C235.476 218.921 223.387 217.261 212.493 211.102C189.311 198.011 181.451 170.22 181.13 169.041C180.54 166.908 180.846 164.64 181.98 162.725C183.106 160.817 184.968 159.42 187.143 158.849C188.346 158.534 216.883 151.301 240.064 164.392C263.246 177.483 271.106 205.274 271.428 206.453C272.01 208.586 271.711 210.854 270.578 212.77C269.451 214.677 267.59 216.074 265.414 216.645C264.778 216.81 256.466 218.921 245.35 218.921" fill="#FFED00"/>
<path d="M144.998 100.082C142.746 100.082 140.578 99.2034 138.985 97.6412C138.104 96.7774 117.435 76.2202 117.435 50.0373C117.435 23.8545 138.111 3.30478 138.985 2.44103C140.578 0.878771 142.746 0 144.998 0C147.251 0 149.419 0.878771 151.012 2.44103C151.893 3.30478 172.562 23.862 172.562 50.0449C172.562 76.2277 151.885 96.7849 151.012 97.6487C149.419 99.2109 147.258 100.09 144.998 100.09" fill="#FFED00"/>
</svg>
